<svg xmlns="http://www.w3.org/2000/svg" xmlns:xlink="http://www.w3.org/1999/xlink" xmlns:inkscape="http://www.inkscape.org/namespaces/inkscape" version="1.1" width="481.91999" height="747.12" viewBox="0 0 481.91999 747.12">
<defs>
<clipPath id="clip_1">
<path transform="matrix(.24,0,0,.24,0,0)" d="M0 0H2009V3114H0Z" clip-rule="evenodd"/>
</clipPath>
<clipPath id="clip_2">
<path transform="matrix(.24,0,0,.24,0,0)" d="M0 0H2009V3114H0Z" clip-rule="evenodd"/>
</clipPath>
</defs>
<g clip-path="url(#clip_1)">
<path transform="matrix(.75,0,0,.75,0,0)" d="M0 0H643V996H0Z" fill="#ffffff"/>
</g>
<g clip-path="url(#clip_2)">
<path transform="matrix(.7199774,0,0,.7199774,-268.1887,-100.07686)" d="M457.5 140H692.5C692.99246 140 693.48019 140.04804 693.96316 140.14409 694.4461 140.24016 694.9151 140.38242 695.37008 140.57088 695.825 140.75934 696.2572 140.99037 696.6667 141.26398 697.0762 141.53755 697.455 141.84847 697.8032 142.19669 698.1514 142.5449 698.4623 142.92375 698.7359 143.33319 699.00949 143.74266 699.2405 144.17488 699.42898 144.62985 699.6174 145.08484 699.7597 145.55384 699.85586 146.03682 699.9519 146.5198 699.99996 147.00754 700 147.5V182.5C699.99996 182.99245 699.9519 183.48018 699.8558 183.96317 699.75967 184.44615 699.6174 184.91515 699.42898 185.37012 699.2405 185.82509 699.00949 186.2573 698.7359 186.66675 698.4623 187.07622 698.1514 187.45507 697.8032 187.80329 697.455 188.1515 697.07626 188.4624 696.66677 188.73601 696.25729 189.0096 695.825 189.24062 695.37008 189.42908 694.9151 189.61754 694.4461 189.7598 693.96316 189.85587 693.48019 189.95195 692.99246 189.99999 692.5 190H457.5C457.00755 189.99999 456.5198 189.95195 456.0368 189.85587 455.55378 189.7598 455.08479 189.61754 454.62983 189.42908 454.17488 189.24062 453.74266 189.0096 453.3332 188.736 452.92375 188.4624 452.5449 188.1515 452.1967 187.80329 451.84846 187.45507 451.53758 187.07622 451.26399 186.66675 450.99037 186.25728 450.7593 185.82506 450.57087 185.37009 450.38243 184.91513 450.24015 184.44615 450.14408 183.96317 450.04804 183.48018 450 182.99245 450 182.5V147.5C450 147.00754 450.04804 146.5198 450.14408 146.03682 450.24015 145.55384 450.38243 145.08484 450.57087 144.62985 450.7593 144.17488 450.99037 143.74266 451.26396 143.33319 451.53755 142.92375 451.84846 142.5449 452.1967 142.19669 452.5449 141.84847 452.9237 141.53755 453.33317 141.26396 453.74266 140.99036 454.17488 140.75934 454.62983 140.57088 455.08479 140.38242 455.55378 140.24016 456.03678 140.14409 456.5198 140.04804 457.00755 140 457.5 140Z" fill="#ffffff"/>
<path transform="matrix(.7199774,0,0,.7199774,-268.1887,-100.07686)" stroke-width="2" stroke-linecap="butt" stroke-miterlimit="4" stroke-linejoin="miter" fill="none" stroke="#000000" d="M457.5 140H692.5C692.99246 140 693.48019 140.04804 693.96316 140.14409 694.4461 140.24016 694.9151 140.38242 695.37008 140.57088 695.825 140.75934 696.2572 140.99037 696.6667 141.26398 697.0762 141.53755 697.455 141.84847 697.8032 142.19669 698.1514 142.5449 698.4623 142.92375 698.7359 143.33319 699.00949 143.74266 699.2405 144.17488 699.42898 144.62985 699.6174 145.08484 699.7597 145.55384 699.85586 146.03682 699.9519 146.5198 699.99996 147.00754 700 147.5V182.5C699.99996 182.99245 699.9519 183.48018 699.8558 183.96317 699.75967 184.44615 699.6174 184.91515 699.42898 185.37012 699.2405 185.82509 699.00949 186.2573 698.7359 186.66675 698.4623 187.07622 698.1514 187.45507 697.8032 187.80329 697.455 188.1515 697.07626 188.4624 696.66677 188.73601 696.25729 189.0096 695.825 189.24062 695.37008 189.42908 694.9151 189.61754 694.4461 189.7598 693.96316 189.85587 693.48019 189.95195 692.99246 189.99999 692.5 190H457.5C457.00755 189.99999 456.5198 189.95195 456.0368 189.85587 455.55378 189.7598 455.08479 189.61754 454.62983 189.42908 454.17488 189.24062 453.74266 189.0096 453.3332 188.736 452.92375 188.4624 452.5449 188.1515 452.1967 187.80329 451.84846 187.45507 451.53758 187.07622 451.26399 186.66675 450.99037 186.25728 450.7593 185.82506 450.57087 185.37009 450.38243 184.91513 450.24015 184.44615 450.14408 183.96317 450.04804 183.48018 450 182.99245 450 182.5V147.5C450 147.00754 450.04804 146.5198 450.14408 146.03682 450.24015 145.55384 450.38243 145.08484 450.57087 144.62985 450.7593 144.17488 450.99037 143.74266 451.26396 143.33319 451.53755 142.92375 451.84846 142.5449 452.1967 142.19669 452.5449 141.84847 452.9237 141.53755 453.33317 141.26396 453.74266 140.99036 454.17488 140.75934 454.62983 140.57088 455.08479 140.38242 455.55378 140.24016 456.03678 140.14409 456.5198 140.04804 457.00755 140 457.5 140Z"/>
<text xml:space="preserve" transform="matrix(.7199774 0 0 .7199774 -268.1887 -100.07686)" font-size="20" font-family="Arial"><tspan y="173" x="517 528.4746 535.1346 546.2546 550.6946 561.8146 566.2546 577.3746 588.49459 594.05459 605.17459 616.29458 621.85458">Training data</tspan></text>
<path transform="matrix(.7199774,0,0,.7199774,-268.1887,-100.07686)" d="M460.5 420H689.5C690.1894 420 690.8722 420.06724 691.54837 420.20173 692.22457 420.33625 692.8811 420.5354 693.51809 420.79924 694.1551 421.06306 694.7602 421.3865 695.33346 421.76954 695.9067 422.15257 696.4371 422.58784 696.92459 423.07536 697.41207 423.56285 697.8473 424.0932 698.23037 424.66648 698.61337 425.23973 698.9368 425.84483 699.2007 426.48179 699.4645 427.11875 699.66366 427.77534 699.79818 428.4515 699.9327 429.12773 699.99996 429.81056 700 430.5V479.5C699.99996 480.18943 699.9327 480.87223 699.79818 481.5484 699.66366 482.2246 699.4645 482.8812 699.2007 483.51814 698.9368 484.1551 698.61337 484.7602 698.2303 485.3334 697.8473 485.90669 697.41207 486.43708 696.92459 486.9246 696.4371 487.4121 695.9067 487.84736 695.3334 488.23036 694.7602 488.61338 694.1551 488.93684 693.51809 489.20069 692.8811 489.4645 692.22457 489.66368 691.54837 489.7982 690.8722 489.9327 690.1894 489.99998 689.5 490H460.5C459.81056 489.99998 459.12773 489.9327 458.45155 489.7982 457.77534 489.66368 457.11875 489.46449 456.48179 489.20066 455.84483 488.9368 455.23973 488.61338 454.66645 488.23036 454.0932 487.84736 453.56285 487.4121 453.07536 486.9246 452.58784 486.43708 452.15254 485.90669 451.7695 485.3334 451.38648 484.7602 451.06303 484.1551 450.7992 483.51814 450.53538 482.8812 450.3362 482.2246 450.2017 481.54844 450.06724 480.87226 450 480.18943 450 479.5V430.5C450 429.81056 450.06727 429.12773 450.20176 428.45149 450.33625 427.7753 450.53538 427.1187 450.7992 426.48176 451.06303 425.8448 451.38648 425.2397 451.7695 424.66645 452.15254 424.0932 452.58784 423.56285 453.07536 423.07536 453.56285 422.58784 454.0932 422.15257 454.66648 421.76954 455.23973 421.3865 455.84483 421.06306 456.48179 420.79924 457.11875 420.5354 457.77534 420.33625 458.45155 420.20176 459.12773 420.06727 459.81056 420 460.5 420Z" fill="#ffffff"/>
<path transform="matrix(.7199774,0,0,.7199774,-268.1887,-100.07686)" stroke-width="2" stroke-linecap="butt" stroke-miterlimit="4" stroke-linejoin="miter" fill="none" stroke="#000000" d="M460.5 420H689.5C690.1894 420 690.8722 420.06724 691.54837 420.20173 692.22457 420.33625 692.8811 420.5354 693.51809 420.79924 694.1551 421.06306 694.7602 421.3865 695.33346 421.76954 695.9067 422.15257 696.4371 422.58784 696.92459 423.07536 697.41207 423.56285 697.8473 424.0932 698.23037 424.66648 698.61337 425.23973 698.9368 425.84483 699.2007 426.48179 699.4645 427.11875 699.66366 427.77534 699.79818 428.4515 699.9327 429.12773 699.99996 429.81056 700 430.5V479.5C699.99996 480.18943 699.9327 480.87223 699.79818 481.5484 699.66366 482.2246 699.4645 482.8812 699.2007 483.51814 698.9368 484.1551 698.61337 484.7602 698.2303 485.3334 697.8473 485.90669 697.41207 486.43708 696.92459 486.9246 696.4371 487.4121 695.9067 487.84736 695.3334 488.23036 694.7602 488.61338 694.1551 488.93684 693.51809 489.20069 692.8811 489.4645 692.22457 489.66368 691.54837 489.7982 690.8722 489.9327 690.1894 489.99998 689.5 490H460.5C459.81056 489.99998 459.12773 489.9327 458.45155 489.7982 457.77534 489.66368 457.11875 489.46449 456.48179 489.20066 455.84483 488.9368 455.23973 488.61338 454.66645 488.23036 454.0932 487.84736 453.56285 487.4121 453.07536 486.9246 452.58784 486.43708 452.15254 485.90669 451.7695 485.3334 451.38648 484.7602 451.06303 484.1551 450.7992 483.51814 450.53538 482.8812 450.3362 482.2246 450.2017 481.54844 450.06724 480.87226 450 480.18943 450 479.5V430.5C450 429.81056 450.06727 429.12773 450.20176 428.45149 450.33625 427.7753 450.53538 427.1187 450.7992 426.48176 451.06303 425.8448 451.38648 425.2397 451.7695 424.66645 452.15254 424.0932 452.58784 423.56285 453.07536 423.07536 453.56285 422.58784 454.0932 422.15257 454.66648 421.76954 455.23973 421.3865 455.84483 421.06306 456.48179 420.79924 457.11875 420.5354 457.77534 420.33625 458.45155 420.20176 459.12773 420.06727 459.81056 420 460.5 420Z"/>
<text xml:space="preserve" transform="matrix(.7199774 0 0 .7199774 -268.1887 -100.07686)" font-size="20" font-family="Arial"><tspan y="451" x="472.15626 485.49626 492.15626 503.27626 513.27627 524.39627 541.0562 552.1762 563.2962 568.8562 579.9762 585.5362 589.9762 601.0962 606.6562 617.7762 624.43618 635.55618 645.55618 651.11618 655.55618 666.67617">Precompute interaction</tspan></text>
<text xml:space="preserve" transform="matrix(.7199774 0 0 .7199774 -268.1887 -100.07686)" font-size="20" font-family="Arial"><tspan y="475" x="520.5156 530.5156 534.9556 546.0756 557.1956 568.3156 572.7556 582.7556 588.3156 599.4356 610.5556 616.1156">signals on E</tspan></text>
<path transform="matrix(.7199774,0,0,.7199774,-268.1887,-100.07686)" d="M448 530H672C673.5721 530 675.1404 530.077 676.70486 530.23117 678.26937 530.38528 679.82247 530.6156 681.36428 530.9223 682.9062 531.229 684.4293 531.61056 685.93368 532.06686 687.438 532.5232 688.9164 533.0521 690.3687 533.6537 691.8211 534.2553 693.24057 534.92666 694.627 535.6677 696.0135 536.4088 697.3603 537.21609 698.66738 538.0894 699.9745 538.9628 701.23568 539.8982 702.4509 540.89547 703.66616 541.89279 704.8295 542.9472 705.9411 544.05886 707.05276 545.1705 708.10726 546.3339 709.1045 547.5492 710.1018 548.76437 711.0371 550.0255 711.91049 551.3326 712.78396 552.6397 713.5912 553.9865 714.3322 555.3729 715.07327 556.75936 715.74459 558.1787 716.3461 559.6311 716.94778 561.0835 717.47677 562.5619 717.9331 564.0663 718.38949 565.5707 718.771 567.0938 719.0777 568.6356 719.3844 570.17758 719.6148 571.7307 719.7689 573.2952 719.923 574.85977 720 576.428 720 578V852C720 853.57217 719.923 855.14047 719.76889 856.7049 719.6148 858.2694 719.3844 859.8225 719.0777 861.36428 718.771 862.9061 718.3895 864.42929 717.93319 865.9336 717.4768 867.438 716.9478 868.9164 716.3462 870.3687 715.7447 871.82119 715.07339 873.24057 714.33236 874.62698 713.5912 876.0134 712.78396 877.3602 711.9105 878.6673 711.0372 879.9745 710.1018 881.2357 709.10458 882.4509 708.10726 883.66616 707.05276 884.8295 705.9411 885.9411 704.8295 887.05276 703.66616 888.1072 702.45089 889.10446 701.23568 890.10177 699.9745 891.0371 698.6673 891.91049 697.3602 892.7839 696.0134 893.5911 694.62698 894.33218 693.24057 895.07327 691.8211 895.74459 690.3687 896.3461 688.9164 896.94778 687.438 897.47677 685.93368 897.9331 684.4293 898.38949 682.9062 898.77096 681.36428 899.07766 679.82247 899.3844 678.26937 899.6148 676.70486 899.7689 675.1404 899.923 673.5721 900 672 900H448C446.42796 900 444.85969 899.923 443.2952 899.7689 441.7307 899.6148 440.17753 899.3844 438.63563 899.0777 437.09379 898.771 435.5707 898.38949 434.06636 897.9331 432.56199 897.47677 431.0836 896.94778 429.63117 896.3461 428.1788 895.74459 426.75938 895.07327 425.37294 894.33218 423.9865 893.5911 422.63975 892.7839 421.33259 891.91049 420.02549 891.0371 418.7643 890.10177 417.5491 889.1045 416.3339 888.1072 415.17048 887.05276 414.05885 885.9411 412.94725 884.8295 411.89277 883.66616 410.89546 882.4509 409.89817 881.2357 408.9628 879.9745 408.0894 878.6673 407.216 877.3602 406.40879 876.0134 405.6677 874.62698 404.92668 873.24057 404.25535 871.82119 403.65373 870.3687 403.05213 868.9164 402.52314 867.438 402.0668 865.9336 401.61048 864.42929 401.22895 862.9061 400.92228 861.36428 400.6156 859.8225 400.3852 858.2694 400.2311 856.7049 400.07704 855.14047 400 853.57217 400 852V578C400 576.428 400.07704 574.85977 400.2311 573.2952 400.3852 571.7307 400.6156 570.17758 400.92228 568.6356 401.22895 567.0938 401.61048 565.5707 402.0668 564.0663 402.52314 562.5619 403.05213 561.0835 403.65373 559.6311 404.25535 558.1787 404.92668 556.75936 405.6677 555.3729 406.40879 553.9865 407.216 552.6397 408.0894 551.3326 408.9628 550.0255 409.89817 548.76437 410.89549 547.5492 411.89277 546.3339 412.94725 545.1705 414.05885 544.05886 415.17048 542.9472 416.3339 541.89279 417.5491 540.89547 418.7643 539.8982 420.02546 538.9628 421.33256 538.0894 422.6397 537.21609 423.98649 536.4088 425.37294 535.66769 426.75938 534.92666 428.1788 534.2553 429.63117 533.6537 431.0836 533.0521 432.56199 532.5232 434.06636 532.0669 435.5707 531.61056 437.09379 531.229 438.63563 530.9223 440.17753 530.6156 441.73069 530.38528 443.29518 530.23117 444.85969 530.077 446.42796 530 448 530Z" fill="#f2f2f2"/>
<path transform="matrix(.7199774,0,0,.7199774,-268.1887,-100.07686)" stroke-width="2" stroke-linecap="butt" stroke-miterlimit="4" stroke-linejoin="miter" fill="none" stroke="#000000" d="M448 530H672C673.5721 530 675.1404 530.077 676.70486 530.23117 678.26937 530.38528 679.82247 530.6156 681.36428 530.9223 682.9062 531.229 684.4293 531.61056 685.93368 532.06686 687.438 532.5232 688.9164 533.0521 690.3687 533.6537 691.8211 534.2553 693.24057 534.92666 694.627 535.6677 696.0135 536.4088 697.3603 537.21609 698.66738 538.0894 699.9745 538.9628 701.23568 539.8982 702.4509 540.89547 703.66616 541.89279 704.8295 542.9472 705.9411 544.05886 707.05276 545.1705 708.10726 546.3339 709.1045 547.5492 710.1018 548.76437 711.0371 550.0255 711.91049 551.3326 712.78396 552.6397 713.5912 553.9865 714.3322 555.3729 715.07327 556.75936 715.74459 558.1787 716.3461 559.6311 716.94778 561.0835 717.47677 562.5619 717.9331 564.0663 718.38949 565.5707 718.771 567.0938 719.0777 568.6356 719.3844 570.17758 719.6148 571.7307 719.7689 573.2952 719.923 574.85977 720 576.428 720 578V852C720 853.57217 719.923 855.14047 719.76889 856.7049 719.6148 858.2694 719.3844 859.8225 719.0777 861.36428 718.771 862.9061 718.3895 864.42929 717.93319 865.9336 717.4768 867.438 716.9478 868.9164 716.3462 870.3687 715.7447 871.82119 715.07339 873.24057 714.33236 874.62698 713.5912 876.0134 712.78396 877.3602 711.9105 878.6673 711.0372 879.9745 710.1018 881.2357 709.10458 882.4509 708.10726 883.66616 707.05276 884.8295 705.9411 885.9411 704.8295 887.05276 703.66616 888.1072 702.45089 889.10446 701.23568 890.10177 699.9745 891.0371 698.6673 891.91049 697.3602 892.7839 696.0134 893.5911 694.62698 894.33218 693.24057 895.07327 691.8211 895.74459 690.3687 896.3461 688.9164 896.94778 687.438 897.47677 685.93368 897.9331 684.4293 898.38949 682.9062 898.77096 681.36428 899.07766 679.82247 899.3844 678.26937 899.6148 676.70486 899.7689 675.1404 899.923 673.5721 900 672 900H448C446.42796 900 444.85969 899.923 443.2952 899.7689 441.7307 899.6148 440.17753 899.3844 438.63563 899.0777 437.09379 898.771 435.5707 898.38949 434.06636 897.9331 432.56199 897.47677 431.0836 896.94778 429.63117 896.3461 428.1788 895.74459 426.75938 895.07327 425.37294 894.33218 423.9865 893.5911 422.63975 892.7839 421.33259 891.91049 420.02549 891.0371 418.7643 890.10177 417.5491 889.1045 416.3339 888.1072 415.17048 887.05276 414.05885 885.9411 412.94725 884.8295 411.89277 883.66616 410.89546 882.4509 409.89817 881.2357 408.9628 879.9745 408.0894 878.6673 407.216 877.3602 406.40879 876.0134 405.6677 874.62698 404.92668 873.24057 404.25535 871.82119 403.65373 870.3687 403.05213 868.9164 402.52314 867.438 402.0668 865.9336 401.61048 864.42929 401.22895 862.9061 400.92228 861.36428 400.6156 859.8225 400.3852 858.2694 400.2311 856.7049 400.07704 855.14047 400 853.57217 400 852V578C400 576.428 400.07704 574.85977 400.2311 573.2952 400.3852 571.7307 400.6156 570.17758 400.92228 568.6356 401.22895 567.0938 401.61048 565.5707 402.0668 564.0663 402.52314 562.5619 403.05213 561.0835 403.65373 559.6311 404.25535 558.1787 404.92668 556.75936 405.6677 555.3729 406.40879 553.9865 407.216 552.6397 408.0894 551.3326 408.9628 550.0255 409.89817 548.76437 410.89549 547.5492 411.89277 546.3339 412.94725 545.1705 414.05885 544.05886 415.17048 542.9472 416.3339 541.89279 417.5491 540.89547 418.7643 539.8982 420.02546 538.9628 421.33256 538.0894 422.6397 537.21609 423.98649 536.4088 425.37294 535.66769 426.75938 534.92666 428.1788 534.2553 429.63117 533.6537 431.0836 533.0521 432.56199 532.5232 434.06636 532.0669 435.5707 531.61056 437.09379 531.229 438.63563 530.9223 440.17753 530.6156 441.73069 530.38528 443.29518 530.23117 444.85969 530.077 446.42796 530 448 530Z"/>
<path transform="matrix(.7199774,0,0,.7199774,-267.8287,-99.71687)" stroke-width="1" stroke-linecap="butt" stroke-miterlimit="10" stroke-linejoin="miter" fill="none" stroke="#000000" d="M450 967.5H380V510H568.63"/>
<path transform="matrix(.7199774,0,0,.7199774,-267.8287,-99.71687)" d="M573.88 510 566.88 513.5 568.63 510 566.88 506.5 573.88 510Z"/>
<path transform="matrix(.7199774,0,0,.7199774,-267.8287,-99.71687)" stroke-width="1" stroke-linecap="butt" stroke-miterlimit="10" stroke-linejoin="miter" fill="none" stroke="#000000" d="M573.88 510 566.88 513.5 568.63 510 566.88 506.5 573.88 510Z"/>
<text xml:space="preserve" transform="matrix(.7199774 0 0 .7199774 -268.1887 -100.07686)" font-size="15" font-family="Arial"><tspan y="959" x="407.15626 416.32127 424.66127 427.99125 435.49125">False</tspan></text>
<path transform="matrix(.7199774,0,0,.7199774,-267.8287,-99.71687)" stroke-width="1" stroke-linecap="butt" stroke-miterlimit="10" stroke-linejoin="miter" fill="none" stroke="#000000" d="M575 1010V1030 1029 1042.63"/>
<path transform="matrix(.7199774,0,0,.7199774,-267.8287,-99.71687)" d="M575 1047.88 571.5 1040.88 575 1042.63 578.5 1040.88 575 1047.88Z"/>
<path transform="matrix(.7199774,0,0,.7199774,-267.8287,-99.71687)" stroke-width="1" stroke-linecap="butt" stroke-miterlimit="10" stroke-linejoin="miter" fill="none" stroke="#000000" d="M575 1047.88 571.5 1040.88 575 1042.63 578.5 1040.88 575 1047.88Z"/>
<text xml:space="preserve" transform="matrix(.7199774 0 0 .7199774 -268.1887 -100.07686)" font-size="15" font-family="Arial"><tspan y="1033" x="579.3594 587.96536 592.9603 601.30038">True</tspan></text>
<path transform="matrix(.7199774,0,0,.7199774,-268.1887,-100.07686)" d="M457.5 1049H692.5C692.99246 1049 693.48019 1049.048 693.96316 1049.144 694.4461 1049.2401 694.9151 1049.3823 695.37008 1049.5708 695.825 1049.7593 696.2572 1049.9904 696.6667 1050.2639 697.0762 1050.5375 697.455 1050.8484 697.8032 1051.1967 698.1514 1051.5449 698.4623 1051.9237 698.7359 1052.3331 699.00949 1052.7426 699.2405 1053.1748 699.42898 1053.6298 699.6174 1054.0847 699.7597 1054.5537 699.85586 1055.0368 699.9519 1055.5198 699.99996 1056.0075 700 1056.5V1091.5C699.99996 1091.9924 699.9519 1092.4801 699.8558 1092.9631 699.75967 1093.4462 699.6174 1093.915 699.42898 1094.37 699.2405 1094.825 699.00949 1095.2572 698.7359 1095.6668 698.4623 1096.0762 698.1514 1096.455 697.8032 1096.8032 697.455 1097.1515 697.07626 1097.4623 696.66677 1097.7359 696.25729 1098.0094 695.825 1098.2405 695.37008 1098.429 694.9151 1098.6174 694.4461 1098.7598 693.96316 1098.8558 693.48019 1098.9519 692.99246 1098.9999 692.5 1099H457.5C457.00755 1098.9999 456.5198 1098.9519 456.0368 1098.8558 455.55378 1098.7598 455.08479 1098.6174 454.62983 1098.429 454.17488 1098.2405 453.74266 1098.0094 453.3332 1097.7359 452.92375 1097.4623 452.5449 1097.1515 452.1967 1096.8032 451.84846 1096.455 451.53758 1096.0762 451.26399 1095.6668 450.99037 1095.2572 450.7593 1094.825 450.57087 1094.37 450.38243 1093.915 450.24015 1093.4462 450.14408 1092.9631 450.04804 1092.4801 450 1091.9924 450 1091.5V1056.5C450 1056.0075 450.04804 1055.5198 450.14408 1055.0368 450.24015 1054.5537 450.38243 1054.0847 450.57087 1053.6298 450.7593 1053.1748 450.99037 1052.7426 451.26396 1052.3331 451.53755 1051.9237 451.84846 1051.5449 452.1967 1051.1967 452.5449 1050.8484 452.9237 1050.5375 453.33317 1050.2639 453.74266 1049.9904 454.17488 1049.7593 454.62983 1049.5708 455.08479 1049.3823 455.55378 1049.2401 456.03678 1049.144 456.5198 1049.048 457.00755 1049 457.5 1049Z" fill="#ffffff"/>
<path transform="matrix(.7199774,0,0,.7199774,-268.1887,-100.07686)" stroke-width="2" stroke-linecap="butt" stroke-miterlimit="4" stroke-linejoin="miter" fill="none" stroke="#000000" d="M457.5 1049H692.5C692.99246 1049 693.48019 1049.048 693.96316 1049.144 694.4461 1049.2401 694.9151 1049.3823 695.37008 1049.5708 695.825 1049.7593 696.2572 1049.9904 696.6667 1050.2639 697.0762 1050.5375 697.455 1050.8484 697.8032 1051.1967 698.1514 1051.5449 698.4623 1051.9237 698.7359 1052.3331 699.00949 1052.7426 699.2405 1053.1748 699.42898 1053.6298 699.6174 1054.0847 699.7597 1054.5537 699.85586 1055.0368 699.9519 1055.5198 699.99996 1056.0075 700 1056.5V1091.5C699.99996 1091.9924 699.9519 1092.4801 699.8558 1092.9631 699.75967 1093.4462 699.6174 1093.915 699.42898 1094.37 699.2405 1094.825 699.00949 1095.2572 698.7359 1095.6668 698.4623 1096.0762 698.1514 1096.455 697.8032 1096.8032 697.455 1097.1515 697.07626 1097.4623 696.66677 1097.7359 696.25729 1098.0094 695.825 1098.2405 695.37008 1098.429 694.9151 1098.6174 694.4461 1098.7598 693.96316 1098.8558 693.48019 1098.9519 692.99246 1098.9999 692.5 1099H457.5C457.00755 1098.9999 456.5198 1098.9519 456.0368 1098.8558 455.55378 1098.7598 455.08479 1098.6174 454.62983 1098.429 454.17488 1098.2405 453.74266 1098.0094 453.3332 1097.7359 452.92375 1097.4623 452.5449 1097.1515 452.1967 1096.8032 451.84846 1096.455 451.53758 1096.0762 451.26399 1095.6668 450.99037 1095.2572 450.7593 1094.825 450.57087 1094.37 450.38243 1093.915 450.24015 1093.4462 450.14408 1092.9631 450.04804 1092.4801 450 1091.9924 450 1091.5V1056.5C450 1056.0075 450.04804 1055.5198 450.14408 1055.0368 450.24015 1054.5537 450.38243 1054.0847 450.57087 1053.6298 450.7593 1053.1748 450.99037 1052.7426 451.26396 1052.3331 451.53755 1051.9237 451.84846 1051.5449 452.1967 1051.1967 452.5449 1050.8484 452.9237 1050.5375 453.33317 1050.2639 453.74266 1049.9904 454.17488 1049.7593 454.62983 1049.5708 455.08479 1049.3823 455.55378 1049.2401 456.03678 1049.144 456.5198 1049.048 457.00755 1049 457.5 1049Z"/>
<text xml:space="preserve" transform="matrix(.7199774 0 0 .7199774 -268.1887 -100.07686)" font-size="20" font-family="Arial"><tspan y="1079" x="455.03126 470.59126 481.71125 487.27125 498.39125 502.83125 513.95126 519.5112 532.85128 543.97128 550.6312 561.7512 567.3112 578.4312 583.9912 593.9912 605.1112 610.6712 616.2312 629.21096 634.77096 654.77096">Obtain Pareto set P &#x2192; </tspan></text>
<text xml:space="preserve" transform="matrix(.7199774 0 0 .7199774 -268.1887 -100.07686)" font-size="20" font-family="Arial" font-style="italic"><tspan y="1079" x="660.3281">S</tspan></text>
<text xml:space="preserve" transform="matrix(.7199774 0 0 .7199774 -268.1887 -100.07686)" font-size="16.66" font-family="Arial" font-style="italic"><tspan y="1084" x="673.6719 682.00186 691.26736">sel</tspan></text>
<path transform="matrix(.7199774,0,0,.7199774,-268.1887,-100.07686)" d="M457.5 1124H692.5C692.99246 1124.0001 693.48019 1124.0481 693.96316 1124.1442 694.4461 1124.2402 694.9151 1124.3825 695.37008 1124.5709 695.825 1124.7593 696.2572 1124.9904 696.6667 1125.2639 697.0762 1125.5375 697.455 1125.8484 697.8032 1126.1967 698.1514 1126.5449 698.4623 1126.9237 698.7359 1127.3331 699.00949 1127.7426 699.2405 1128.1748 699.42898 1128.6298 699.6174 1129.0847 699.7597 1129.5537 699.85586 1130.0368 699.9519 1130.5198 699.99996 1131.0076 700 1131.5V1166.5C699.99996 1166.9924 699.9519 1167.4801 699.8558 1167.963 699.75967 1168.446 699.6174 1168.9149 699.42898 1169.3699 699.2405 1169.8248 699.00949 1170.2571 698.7359 1170.6665 698.4623 1171.076 698.1514 1171.455 697.8032 1171.8032 697.455 1172.1514 697.07626 1172.4623 696.66677 1172.7359 696.25729 1173.0095 695.825 1173.2406 695.37008 1173.429 694.9151 1173.6174 694.4461 1173.7597 693.96316 1173.8557 693.48019 1173.9519 692.99246 1174 692.5 1174H457.5C457.00755 1174 456.5198 1173.9519 456.0368 1173.8557 455.55378 1173.7597 455.08479 1173.6174 454.62983 1173.429 454.17488 1173.2406 453.74266 1173.0095 453.3332 1172.7359 452.92375 1172.4623 452.5449 1172.1514 452.1967 1171.8032 451.84846 1171.455 451.53758 1171.076 451.26399 1170.6665 450.99037 1170.2571 450.7593 1169.8248 450.57087 1169.3699 450.38243 1168.9149 450.24015 1168.446 450.14408 1167.963 450.04804 1167.4801 450 1166.9924 450 1166.5V1131.5C450 1131.0076 450.04804 1130.5198 450.14408 1130.0368 450.24015 1129.5537 450.38243 1129.0847 450.57087 1128.6298 450.7593 1128.1748 450.99037 1127.7426 451.26396 1127.3331 451.53755 1126.9237 451.84846 1126.5449 452.1967 1126.1967 452.5449 1125.8484 452.9237 1125.5375 453.33317 1125.2639 453.74266 1124.9904 454.17488 1124.7593 454.62983 1124.5709 455.08479 1124.3825 455.55378 1124.2402 456.03678 1124.1442 456.5198 1124.0481 457.00755 1124.0001 457.5 1124Z" fill="#eeeeee"/>
<path transform="matrix(.7199774,0,0,.7199774,-268.1887,-100.07686)" stroke-width="2" stroke-linecap="butt" stroke-miterlimit="4" stroke-linejoin="miter" fill="none" stroke="#36393d" d="M457.5 1124H692.5C692.99246 1124.0001 693.48019 1124.0481 693.96316 1124.1442 694.4461 1124.2402 694.9151 1124.3825 695.37008 1124.5709 695.825 1124.7593 696.2572 1124.9904 696.6667 1125.2639 697.0762 1125.5375 697.455 1125.8484 697.8032 1126.1967 698.1514 1126.5449 698.4623 1126.9237 698.7359 1127.3331 699.00949 1127.7426 699.2405 1128.1748 699.42898 1128.6298 699.6174 1129.0847 699.7597 1129.5537 699.85586 1130.0368 699.9519 1130.5198 699.99996 1131.0076 700 1131.5V1166.5C699.99996 1166.9924 699.9519 1167.4801 699.8558 1167.963 699.75967 1168.446 699.6174 1168.9149 699.42898 1169.3699 699.2405 1169.8248 699.00949 1170.2571 698.7359 1170.6665 698.4623 1171.076 698.1514 1171.455 697.8032 1171.8032 697.455 1172.1514 697.07626 1172.4623 696.66677 1172.7359 696.25729 1173.0095 695.825 1173.2406 695.37008 1173.429 694.9151 1173.6174 694.4461 1173.7597 693.96316 1173.8557 693.48019 1173.9519 692.99246 1174 692.5 1174H457.5C457.00755 1174 456.5198 1173.9519 456.0368 1173.8557 455.55378 1173.7597 455.08479 1173.6174 454.62983 1173.429 454.17488 1173.2406 453.74266 1173.0095 453.3332 1172.7359 452.92375 1172.4623 452.5449 1172.1514 452.1967 1171.8032 451.84846 1171.455 451.53758 1171.076 451.26399 1170.6665 450.99037 1170.2571 450.7593 1169.8248 450.57087 1169.3699 450.38243 1168.9149 450.24015 1168.446 450.14408 1167.963 450.04804 1167.4801 450 1166.9924 450 1166.5V1131.5C450 1131.0076 450.04804 1130.5198 450.14408 1130.0368 450.24015 1129.5537 450.38243 1129.0847 450.57087 1128.6298 450.7593 1128.1748 450.99037 1127.7426 451.26396 1127.3331 451.53755 1126.9237 451.84846 1126.5449 452.1967 1126.1967 452.5449 1125.8484 452.9237 1125.5375 453.33317 1125.2639 453.74266 1124.9904 454.17488 1124.7593 454.62983 1124.5709 455.08479 1124.3825 455.55378 1124.2402 456.03678 1124.1442 456.5198 1124.0481 457.00755 1124.0001 457.5 1124Z"/>
<text xml:space="preserve" transform="matrix(.7199774 0 0 .7199774 -268.1887 -100.07686)" font-size="20" font-family="Arial"><tspan y="1157" x="497.73439 511.07438 522.1944 533.3144 544.4344 554.4344 561.09439 574.4344 586.65438 599.9944 605.5544">Buddy-SFS &#x2192;</tspan></text>
<text xml:space="preserve" transform="matrix(.7199774 0 0 .7199774 -268.1887 -100.07686)" font-size="20" font-family="Arial"><tspan y="1157" x="625.5544"> </tspan></text>
<text xml:space="preserve" transform="matrix(.7199774 0 0 .7199774 -268.1887 -100.07686)" font-size="20" font-family="Arial" font-style="italic"><tspan y="1157" x="631.125 644.465">S*</tspan></text>
<path transform="matrix(.7199774,0,0,.7199774,-267.8287,-99.71687)" stroke-width="1" stroke-linecap="butt" stroke-miterlimit="10" stroke-linejoin="miter" fill="none" stroke="#000000" d="M575 190V211.88"/>
<path transform="matrix(.7199774,0,0,.7199774,-267.8287,-99.71687)" d="M575 218.88 571.5 211.88H578.5L575 218.88Z"/>
<path transform="matrix(.7199774,0,0,.7199774,-267.8287,-99.71687)" stroke-width="1" stroke-linecap="butt" stroke-miterlimit="10" stroke-linejoin="miter" fill="none" stroke="#000000" d="M575 218.88 571.5 211.88H578.5L575 218.88Z"/>
<path transform="matrix(.7199774,0,0,.7199774,-267.8287,-99.71687)" stroke-width="1" stroke-linecap="butt" stroke-miterlimit="10" stroke-linejoin="miter" fill="none" stroke="#000000" d="M575 290V311.88"/>
<path transform="matrix(.7199774,0,0,.7199774,-267.8287,-99.71687)" d="M575 318.88 571.5 311.88H578.5L575 318.88Z"/>
<path transform="matrix(.7199774,0,0,.7199774,-267.8287,-99.71687)" stroke-width="1" stroke-linecap="butt" stroke-miterlimit="10" stroke-linejoin="miter" fill="none" stroke="#000000" d="M575 318.88 571.5 311.88H578.5L575 318.88Z"/>
<path transform="matrix(.7199774,0,0,.7199774,-267.8287,-99.71687)" stroke-width="1" stroke-linecap="butt" stroke-miterlimit="10" stroke-linejoin="miter" fill="none" stroke="#000000" d="M575 390V411.88"/>
<path transform="matrix(.7199774,0,0,.7199774,-267.8287,-99.71687)" d="M575 418.88 571.5 411.88H578.5L575 418.88Z"/>
<path transform="matrix(.7199774,0,0,.7199774,-267.8287,-99.71687)" stroke-width="1" stroke-linecap="butt" stroke-miterlimit="10" stroke-linejoin="miter" fill="none" stroke="#000000" d="M575 418.88 571.5 411.88H578.5L575 418.88Z"/>
<path transform="matrix(.7199774,0,0,.7199774,-267.8287,-99.71687)" stroke-width="1" stroke-linecap="butt" stroke-miterlimit="10" stroke-linejoin="miter" fill="none" stroke="#000000" d="M575 490V541.88"/>
<path transform="matrix(.7199774,0,0,.7199774,-267.8287,-99.71687)" d="M575 548.88 571.5 541.88H578.5L575 548.88Z"/>
<path transform="matrix(.7199774,0,0,.7199774,-267.8287,-99.71687)" stroke-width="1" stroke-linecap="butt" stroke-miterlimit="10" stroke-linejoin="miter" fill="none" stroke="#000000" d="M575 548.88 571.5 541.88H578.5L575 548.88Z"/>
<path transform="matrix(.7199774,0,0,.7199774,-267.8287,-99.71687)" stroke-width="1" stroke-linecap="butt" stroke-miterlimit="10" stroke-linejoin="miter" fill="none" stroke="#000000" d="M575 1099V1115.88"/>
<path transform="matrix(.7199774,0,0,.7199774,-267.8287,-99.71687)" d="M575 1122.88 571.5 1115.88H578.5L575 1122.88Z"/>
<path transform="matrix(.7199774,0,0,.7199774,-267.8287,-99.71687)" stroke-width="1" stroke-linecap="butt" stroke-miterlimit="10" stroke-linejoin="miter" fill="none" stroke="#000000" d="M575 1122.88 571.5 1115.88H578.5L575 1122.88Z"/>
<path transform="matrix(.7199774,0,0,.7199774,-268.1887,-100.07686)" d="M1040 626.5V593.5C1040 575.5 1031 566.5 1013 566.5H789C771 566.5 762 575.5 762 593.5V626.5" fill="#ffffff"/>
<path transform="matrix(.7199774,0,0,.7199774,-268.1887,-100.07686)" stroke-width="2" stroke-linecap="butt" stroke-miterlimit="10" stroke-linejoin="miter" fill="none" stroke="#000000" d="M1040 626.5V593.5C1040 575.5 1031 566.5 1013 566.5H789C771 566.5 762 575.5 762 593.5V626.5"/>
<path transform="matrix(.7199774,0,0,.7199774,-268.1887,-100.07686)" stroke-width="2" stroke-linecap="butt" stroke-miterlimit="10" stroke-linejoin="miter" fill="none" stroke="#000000" d="M762 626.5V836.5C762 854.5 771 863.5 789 863.5H1013C1031 863.5 1040 854.5 1040 836.5V626.5"/>
<path transform="matrix(.7199774,0,0,.7199774,-268.1887,-100.07686)" stroke-width="2" stroke-linecap="butt" stroke-miterlimit="10" stroke-linejoin="miter" fill="none" stroke="#000000" d="M762 626.5H1040"/>
<text xml:space="preserve" transform="matrix(.7199774 0 0 .7199774 -268.1887 -100.07686)" font-size="20" font-family="Arial"><tspan y="605" x="817.0625 829.2825 840.40249 847.06246 852.62246 863.74246 874.8624 884.8624 895.9824 901.5424 905.9824 917.1024 928.2224 932.6624 942.6624 947.1024 958.2224 969.3424 980.4624">For each individual</tspan></text>
<path transform="matrix(.7199774,0,0,.7199774,-267.8287,-99.71687)" stroke-width="1" stroke-linecap="butt" stroke-miterlimit="10" stroke-linejoin="miter" fill="none" stroke="#000000" d="M901 690.5V711.13"/>
<path transform="matrix(.7199774,0,0,.7199774,-267.8287,-99.71687)" d="M901 716.38 897.5 709.38 901 711.13 904.5 709.38 901 716.38Z"/>
<path transform="matrix(.7199774,0,0,.7199774,-267.8287,-99.71687)" stroke-width="1" stroke-linecap="butt" stroke-miterlimit="10" stroke-linejoin="miter" fill="none" stroke="#000000" d="M901 716.38 897.5 709.38 901 711.13 904.5 709.38 901 716.38Z"/>
<path transform="matrix(.7199774,0,0,.7199774,-268.1887,-100.07686)" d="M783.5 640.5H1018.5C1018.9924 640.5 1019.48007 640.54806 1019.963 640.6441 1020.446 640.7402 1020.915 640.88247 1021.36996 641.07089 1021.8249 641.2593 1022.25717 641.4903 1022.6666 641.7639 1023.0761 642.03756 1023.45498 642.34848 1023.80319 642.69668 1024.1514 643.04489 1024.4623 643.42367 1024.7359 643.8331 1025.0094 644.24258 1025.2405 644.67477 1025.429 645.12979 1025.6174 645.5847 1025.7597 646.0537 1025.8557 646.53677 1025.9519 647.0198 1026 647.5075 1026 648V683C1026 683.4925 1025.9519 683.98019 1025.8558 684.46316 1025.7598 684.9461 1025.6174 685.4151 1025.429 685.87008 1025.2405 686.325 1025.0094 686.75729 1024.7359 687.16677 1024.4623 687.5762 1024.1514 687.955 1023.80319 688.3032 1023.45498 688.6514 1023.0761 688.96237 1022.6666 689.23587 1022.25717 689.50949 1021.8249 689.74057 1021.36996 689.92898 1020.915 690.11746 1020.44607 690.2597 1019.9631 690.3558 1019.4801 690.4519 1018.9924 690.49996 1018.5 690.5H783.5C783.0075 690.49996 782.5198 690.4519 782.0368 690.3558 781.5538 690.2597 781.0848 690.11746 780.6298 689.92898 780.1748 689.74057 779.7426 689.50949 779.3331 689.23587 778.9237 688.96237 778.54489 688.6514 778.19668 688.3032 777.8484 687.955 777.5375 687.5762 777.2639 687.16677 776.9903 686.75729 776.7593 686.325 776.5708 685.87008 776.3824 685.4151 776.2401 684.9461 776.14407 684.46316 776.04806 683.98019 776 683.4925 776 683V648C776 647.5075 776.04806 647.0198 776.14407 646.53677 776.2401 646.0537 776.3824 645.5847 776.5708 645.12979 776.7593 644.67477 776.99038 644.24258 777.264 643.8331 777.5375 643.42367 777.8484 643.04489 778.19668 642.69668 778.54489 642.34848 778.9237 642.03756 779.3331 641.7639 779.7426 641.4903 780.1748 641.2593 780.62979 641.07089 781.0848 640.88247 781.5538 640.7402 782.03677 640.6441 782.5198 640.54806 783.0075 640.5 783.5 640.5Z" fill="#ffffff"/>
<path transform="matrix(.7199774,0,0,.7199774,-268.1887,-100.07686)" stroke-width="2" stroke-linecap="butt" stroke-miterlimit="4" stroke-linejoin="miter" fill="none" stroke="#000000" d="M783.5 640.5H1018.5C1018.9924 640.5 1019.48007 640.54806 1019.963 640.6441 1020.446 640.7402 1020.915 640.88247 1021.36996 641.07089 1021.8249 641.2593 1022.25717 641.4903 1022.6666 641.7639 1023.0761 642.03756 1023.45498 642.34848 1023.80319 642.69668 1024.1514 643.04489 1024.4623 643.42367 1024.7359 643.8331 1025.0094 644.24258 1025.2405 644.67477 1025.429 645.12979 1025.6174 645.5847 1025.7597 646.0537 1025.8557 646.53677 1025.9519 647.0198 1026 647.5075 1026 648V683C1026 683.4925 1025.9519 683.98019 1025.8558 684.46316 1025.7598 684.9461 1025.6174 685.4151 1025.429 685.87008 1025.2405 686.325 1025.0094 686.75729 1024.7359 687.16677 1024.4623 687.5762 1024.1514 687.955 1023.80319 688.3032 1023.45498 688.6514 1023.0761 688.96237 1022.6666 689.23587 1022.25717 689.50949 1021.8249 689.74057 1021.36996 689.92898 1020.915 690.11746 1020.44607 690.2597 1019.9631 690.3558 1019.4801 690.4519 1018.9924 690.49996 1018.5 690.5H783.5C783.0075 690.49996 782.5198 690.4519 782.0368 690.3558 781.5538 690.2597 781.0848 690.11746 780.6298 689.92898 780.1748 689.74057 779.7426 689.50949 779.3331 689.23587 778.9237 688.96237 778.54489 688.6514 778.19668 688.3032 777.8484 687.955 777.5375 687.5762 777.2639 687.16677 776.9903 686.75729 776.7593 686.325 776.5708 685.87008 776.3824 685.4151 776.2401 684.9461 776.14407 684.46316 776.04806 683.98019 776 683.4925 776 683V648C776 647.5075 776.04806 647.0198 776.14407 646.53677 776.2401 646.0537 776.3824 645.5847 776.5708 645.12979 776.7593 644.67477 776.99038 644.24258 777.264 643.8331 777.5375 643.42367 777.8484 643.04489 778.19668 642.69668 778.54489 642.34848 778.9237 642.03756 779.3331 641.7639 779.7426 641.4903 780.1748 641.2593 780.62979 641.07089 781.0848 640.88247 781.5538 640.7402 782.03677 640.6441 782.5198 640.54806 783.0075 640.5 783.5 640.5Z"/>
<text xml:space="preserve" transform="matrix(.7199774 0 0 .7199774 -268.1887 -100.07686)" font-size="20" font-family="Arial"><tspan y="671" x="794.7344 808.0744 814.7344 824.7344 835.8544 846.97439 851.41439 855.8544 861.41439 875.8544 886.97439 896.97439 908.09439 919.21438 930.33438 935.89437 955.89437">K-shell Decode &#x2192; </tspan></text>
<text xml:space="preserve" transform="matrix(.7199774 0 0 .7199774 -268.1887 -100.07686)" font-size="20" font-family="Arial" font-style="italic"><tspan y="671" x="961.4844">S</tspan></text>
<text xml:space="preserve" transform="matrix(.7199774 0 0 .7199774 -268.1887 -100.07686)" font-size="16.66" font-family="Arial" font-style="italic"><tspan y="676" x="974.8281 983.1581 992.4236 997.9715">core</tspan></text>
<path transform="matrix(.7199774,0,0,.7199774,-267.8287,-99.71687)" stroke-width="1" stroke-linecap="butt" stroke-miterlimit="10" stroke-linejoin="miter" fill="none" stroke="#000000" d="M901 767.5V791.13"/>
<path transform="matrix(.7199774,0,0,.7199774,-267.8287,-99.71687)" d="M901 796.38 897.5 789.38 901 791.13 904.5 789.38 901 796.38Z"/>
<path transform="matrix(.7199774,0,0,.7199774,-267.8287,-99.71687)" stroke-width="1" stroke-linecap="butt" stroke-miterlimit="10" stroke-linejoin="miter" fill="none" stroke="#000000" d="M901 796.38 897.5 789.38 901 791.13 904.5 789.38 901 796.38Z"/>
<path transform="matrix(.7199774,0,0,.7199774,-268.1887,-100.07686)" d="M783.5 717.5H1018.5C1018.9924 717.5 1019.48007 717.54806 1019.963 717.64407 1020.446 717.7402 1020.915 717.88247 1021.36996 718.07089 1021.8249 718.25936 1022.25717 718.49038 1022.6666 718.7639 1023.0761 719.03756 1023.45498 719.34848 1023.80319 719.69668 1024.1514 720.04489 1024.4623 720.42367 1024.7359 720.8331 1025.0094 721.2426 1025.2405 721.6748 1025.429 722.12979 1025.6174 722.5847 1025.7597 723.0537 1025.8557 723.53677 1025.9519 724.0198 1026 724.5075 1026 725V760C1026 760.4924 1025.9519 760.9801 1025.8558 761.4631 1025.7598 761.94607 1025.6174 762.41506 1025.429 762.87008 1025.2405 763.325 1025.0094 763.7572 1024.7359 764.1667 1024.4623 764.5762 1024.1514 764.955 1023.80319 765.3033 1023.45498 765.6515 1023.0761 765.96237 1022.6666 766.23599 1022.25717 766.5095 1021.8249 766.74057 1021.36996 766.929 1020.915 767.11746 1020.44607 767.2597 1019.9631 767.35586 1019.4801 767.45199 1018.9924 767.5 1018.5 767.5H783.5C783.0075 767.5 782.5198 767.45199 782.0368 767.35586 781.5538 767.2597 781.0848 767.11746 780.6298 766.929 780.1748 766.74057 779.7426 766.5095 779.3331 766.23599 778.9237 765.96237 778.54489 765.6515 778.19668 765.3033 777.8484 764.955 777.5375 764.5762 777.2639 764.1667 776.9903 763.7572 776.7593 763.325 776.5708 762.87008 776.3824 762.41506 776.2401 761.94607 776.14407 761.4631 776.04806 760.9801 776 760.4924 776 760V725C776 724.5075 776.04806 724.0198 776.14407 723.53677 776.2401 723.0537 776.3824 722.5847 776.5708 722.12979 776.7593 721.6748 776.99038 721.2426 777.264 720.8331 777.5375 720.42367 777.8484 720.04489 778.19668 719.69668 778.54489 719.34848 778.9237 719.03756 779.3331 718.7639 779.7426 718.49038 780.1748 718.25936 780.62979 718.07089 781.0848 717.88247 781.5538 717.7402 782.03677 717.6441 782.5198 717.54806 783.0075 717.5 783.5 717.5Z" fill="#eeeeee"/>
<path transform="matrix(.7199774,0,0,.7199774,-268.1887,-100.07686)" stroke-width="2" stroke-linecap="butt" stroke-miterlimit="4" stroke-linejoin="miter" fill="none" stroke="#36393d" d="M783.5 717.5H1018.5C1018.9924 717.5 1019.48007 717.54806 1019.963 717.64407 1020.446 717.7402 1020.915 717.88247 1021.36996 718.07089 1021.8249 718.25936 1022.25717 718.49038 1022.6666 718.7639 1023.0761 719.03756 1023.45498 719.34848 1023.80319 719.69668 1024.1514 720.04489 1024.4623 720.42367 1024.7359 720.8331 1025.0094 721.2426 1025.2405 721.6748 1025.429 722.12979 1025.6174 722.5847 1025.7597 723.0537 1025.8557 723.53677 1025.9519 724.0198 1026 724.5075 1026 725V760C1026 760.4924 1025.9519 760.9801 1025.8558 761.4631 1025.7598 761.94607 1025.6174 762.41506 1025.429 762.87008 1025.2405 763.325 1025.0094 763.7572 1024.7359 764.1667 1024.4623 764.5762 1024.1514 764.955 1023.80319 765.3033 1023.45498 765.6515 1023.0761 765.96237 1022.6666 766.23599 1022.25717 766.5095 1021.8249 766.74057 1021.36996 766.929 1020.915 767.11746 1020.44607 767.2597 1019.9631 767.35586 1019.4801 767.45199 1018.9924 767.5 1018.5 767.5H783.5C783.0075 767.5 782.5198 767.45199 782.0368 767.35586 781.5538 767.2597 781.0848 767.11746 780.6298 766.929 780.1748 766.74057 779.7426 766.5095 779.3331 766.23599 778.9237 765.96237 778.54489 765.6515 778.19668 765.3033 777.8484 764.955 777.5375 764.5762 777.2639 764.1667 776.9903 763.7572 776.7593 763.325 776.5708 762.87008 776.3824 762.41506 776.2401 761.94607 776.14407 761.4631 776.04806 760.9801 776 760.4924 776 760V725C776 724.5075 776.04806 724.0198 776.14407 723.53677 776.2401 723.0537 776.3824 722.5847 776.5708 722.12979 776.7593 721.6748 776.99038 721.2426 777.264 720.8331 777.5375 720.42367 777.8484 720.04489 778.19668 719.69668 778.54489 719.34848 778.9237 719.03756 779.3331 718.7639 779.7426 718.49038 780.1748 718.25936 780.62979 718.07089 781.0848 717.88247 781.5538 717.7402 782.03677 717.6441 782.5198 717.54806 783.0075 717.5 783.5 717.5Z"/>
<text xml:space="preserve" transform="matrix(.7199774 0 0 .7199774 -268.1887 -100.07686)" font-size="20" font-family="Arial"><tspan y="748" x="817.0781 831.5181 845.9581 852.6181 868.1781 874.8381 885.95809 897.07809 908.19808 918.19808 923.75808">RC-Greedy &#x2192;</tspan></text>
<text xml:space="preserve" transform="matrix(.7199774 0 0 .7199774 -268.1887 -100.07686)" font-size="20" font-family="Arial"><tspan y="748" x="943.75808"> </tspan></text>
<text xml:space="preserve" transform="matrix(.7199774 0 0 .7199774 -268.1887 -100.07686)" font-size="20" font-family="Arial" font-style="italic"><tspan y="748" x="949.3281">S</tspan></text>
<text xml:space="preserve" transform="matrix(.7199774 0 0 .7199774 -268.1887 -100.07686)" font-size="16.66" font-family="Arial" font-style="italic"><tspan y="753" x="962.6719 971.9374 980.26736">ext</tspan></text>
<path transform="matrix(.7199774,0,0,.7199774,-268.1887,-100.07686)" d="M783.5 797.5H1018.5C1018.9924 797.5 1019.48007 797.54806 1019.963 797.64407 1020.446 797.7401 1020.915 797.8824 1021.36996 798.07089 1021.8249 798.2593 1022.25717 798.49038 1022.6666 798.764 1023.0761 799.0376 1023.45498 799.3485 1023.80319 799.6967 1024.1514 800.0449 1024.4623 800.4237 1024.7359 800.8332 1025.0094 801.2426 1025.2405 801.6748 1025.429 802.1298 1025.6174 802.5848 1025.7597 803.0538 1025.8557 803.5368 1025.9519 804.0198 1026 804.5075 1026 805V840C1026 840.49246 1025.9519 840.98019 1025.8558 841.46316 1025.7598 841.9461 1025.6174 842.4151 1025.429 842.87008 1025.2405 843.325 1025.0094 843.7572 1024.7359 844.1666 1024.4623 844.5761 1024.1514 844.955 1023.80319 845.3032 1023.45498 845.6514 1023.0761 845.9623 1022.6666 846.23587 1022.25717 846.50949 1021.8249 846.7405 1021.36996 846.92898 1020.915 847.11746 1020.44607 847.2597 1019.9631 847.3558 1019.4801 847.4519 1018.9924 847.49996 1018.5 847.5H783.5C783.0075 847.49996 782.5198 847.4519 782.0368 847.3558 781.5538 847.2597 781.0848 847.11746 780.6298 846.92898 780.1748 846.7405 779.7426 846.50949 779.3331 846.2359 778.9237 845.9623 778.54489 845.6514 778.19668 845.3032 777.8484 844.955 777.5375 844.5762 777.2639 844.1667 776.9903 843.7572 776.7593 843.325 776.5708 842.87008 776.3824 842.4151 776.2401 841.9461 776.14407 841.46316 776.04806 840.98019 776 840.49246 776 840V805C776 804.5075 776.04806 804.0198 776.14407 803.5368 776.2401 803.0538 776.3824 802.5848 776.5708 802.1298 776.7593 801.6748 776.99038 801.2426 777.264 800.8332 777.5375 800.4237 777.8484 800.0449 778.19668 799.6967 778.54489 799.3485 778.9237 799.0376 779.3331 798.764 779.7426 798.49038 780.1748 798.2593 780.62979 798.07089 781.0848 797.8824 781.5538 797.7401 782.03677 797.64407 782.5198 797.54806 783.0075 797.5 783.5 797.5Z" fill="#ffffff"/>
<path transform="matrix(.7199774,0,0,.7199774,-268.1887,-100.07686)" stroke-width="2" stroke-linecap="butt" stroke-miterlimit="4" stroke-linejoin="miter" fill="none" stroke="#000000" d="M783.5 797.5H1018.5C1018.9924 797.5 1019.48007 797.54806 1019.963 797.64407 1020.446 797.7401 1020.915 797.8824 1021.36996 798.07089 1021.8249 798.2593 1022.25717 798.49038 1022.6666 798.764 1023.0761 799.0376 1023.45498 799.3485 1023.80319 799.6967 1024.1514 800.0449 1024.4623 800.4237 1024.7359 800.8332 1025.0094 801.2426 1025.2405 801.6748 1025.429 802.1298 1025.6174 802.5848 1025.7597 803.0538 1025.8557 803.5368 1025.9519 804.0198 1026 804.5075 1026 805V840C1026 840.49246 1025.9519 840.98019 1025.8558 841.46316 1025.7598 841.9461 1025.6174 842.4151 1025.429 842.87008 1025.2405 843.325 1025.0094 843.7572 1024.7359 844.1666 1024.4623 844.5761 1024.1514 844.955 1023.80319 845.3032 1023.45498 845.6514 1023.0761 845.9623 1022.6666 846.23587 1022.25717 846.50949 1021.8249 846.7405 1021.36996 846.92898 1020.915 847.11746 1020.44607 847.2597 1019.9631 847.3558 1019.4801 847.4519 1018.9924 847.49996 1018.5 847.5H783.5C783.0075 847.49996 782.5198 847.4519 782.0368 847.3558 781.5538 847.2597 781.0848 847.11746 780.6298 846.92898 780.1748 846.7405 779.7426 846.50949 779.3331 846.2359 778.9237 845.9623 778.54489 845.6514 778.19668 845.3032 777.8484 844.955 777.5375 844.5762 777.2639 844.1667 776.9903 843.7572 776.7593 843.325 776.5708 842.87008 776.3824 842.4151 776.2401 841.9461 776.14407 841.46316 776.04806 840.98019 776 840.49246 776 840V805C776 804.5075 776.04806 804.0198 776.14407 803.5368 776.2401 803.0538 776.3824 802.5848 776.5708 802.1298 776.7593 801.6748 776.99038 801.2426 777.264 800.8332 777.5375 800.4237 777.8484 800.0449 778.19668 799.6967 778.54489 799.3485 778.9237 799.0376 779.3331 798.764 779.7426 798.49038 780.1748 798.2593 780.62979 798.07089 781.0848 797.8824 781.5538 797.7401 782.03677 797.64407 782.5198 797.54806 783.0075 797.5 783.5 797.5Z"/>
<text xml:space="preserve" transform="matrix(.7199774 0 0 .7199774 -268.1887 -100.07686)" font-size="20" font-family="Arial"><tspan y="828" x="841.6875 855.0275 865.0275 876.1475 880.5875 891.7075 902.8275 908.3875 919.5075 925.0675">Evaluate f</tspan></text>
<text xml:space="preserve" transform="matrix(.7199774 0 0 .7199774 -268.1887 -100.07686)" font-size="16.66" font-family="Arial"><tspan y="833" x="930.6406">1</tspan></text>
<text xml:space="preserve" transform="matrix(.7199774 0 0 .7199774 -268.1887 -100.07686)" font-size="20" font-family="Arial"><tspan y="828" x="939.90628 945.46627">,f</tspan></text>
<text xml:space="preserve" transform="matrix(.7199774 0 0 .7199774 -268.1887 -100.07686)" font-size="16.66" font-family="Arial"><tspan y="833" x="951.03128">2</tspan></text>
<path transform="matrix(.7199774,0,0,.7199774,-267.8287,-99.71687)" stroke-width="1" stroke-linecap="butt" stroke-miterlimit="10" stroke-linejoin="miter" fill="none" stroke="#000000" d="M700 595 760.89 594.12"/>
<path transform="matrix(.7199774,0,0,.7199774,-268.1887,-100.07686)" d="M460.5 220H689.5C690.1894 220 690.8722 220.06725 691.54837 220.20175 692.22457 220.33626 692.8811 220.53542 693.51809 220.79926 694.1551 221.06308 694.7602 221.3865 695.33346 221.76955 695.9067 222.15258 696.4371 222.58785 696.92459 223.07537 697.41207 223.56287 697.8473 224.09325 698.23037 224.66649 698.61337 225.23973 698.9368 225.84484 699.2007 226.4818 699.4645 227.11876 699.66366 227.77533 699.79818 228.45153 699.9327 229.12772 699.99996 229.81055 700 230.5V279.5C699.99996 280.18946 699.9327 280.87226 699.79818 281.54844 699.66366 282.22465 699.4645 282.88124 699.2007 283.51817 698.9368 284.1551 698.61337 284.7602 698.2303 285.33348 697.8473 285.9067 697.41207 286.4371 696.92459 286.92463 696.4371 287.41215 695.9067 287.8474 695.3334 288.23045 694.7602 288.61347 694.1551 288.9369 693.51809 289.2007 692.8811 289.46455 692.22457 289.66374 691.54837 289.79823 690.8722 289.93275 690.1894 290 689.5 290H460.5C459.81056 290 459.12773 289.93275 458.45155 289.79823 457.77534 289.66374 457.11875 289.46455 456.48179 289.2007 455.84483 288.9369 455.23973 288.61347 454.66645 288.23045 454.0932 287.8474 453.56285 287.41215 453.07536 286.92463 452.58784 286.4371 452.15254 285.9067 451.7695 285.33348 451.38648 284.7602 451.06303 284.1551 450.7992 283.51817 450.53538 282.88124 450.3362 282.22465 450.2017 281.54844 450.06724 280.87226 450 280.18946 450 279.5V230.5C450 229.81055 450.06727 229.12772 450.20176 228.45153 450.33625 227.77533 450.53538 227.11876 450.7992 226.4818 451.06303 225.84484 451.38648 225.23973 451.7695 224.66649 452.15254 224.09325 452.58784 223.56287 453.07536 223.07537 453.56285 222.58785 454.0932 222.15258 454.66648 221.76955 455.23973 221.3865 455.84483 221.06308 456.48179 220.79926 457.11875 220.53542 457.77534 220.33626 458.45155 220.20175 459.12773 220.06725 459.81056 220 460.5 220Z" fill="#ffffff"/>
<path transform="matrix(.7199774,0,0,.7199774,-268.1887,-100.07686)" stroke-width="2" stroke-linecap="butt" stroke-miterlimit="4" stroke-linejoin="miter" fill="none" stroke="#000000" d="M460.5 220H689.5C690.1894 220 690.8722 220.06725 691.54837 220.20175 692.22457 220.33626 692.8811 220.53542 693.51809 220.79926 694.1551 221.06308 694.7602 221.3865 695.33346 221.76955 695.9067 222.15258 696.4371 222.58785 696.92459 223.07537 697.41207 223.56287 697.8473 224.09325 698.23037 224.66649 698.61337 225.23973 698.9368 225.84484 699.2007 226.4818 699.4645 227.11876 699.66366 227.77533 699.79818 228.45153 699.9327 229.12772 699.99996 229.81055 700 230.5V279.5C699.99996 280.18946 699.9327 280.87226 699.79818 281.54844 699.66366 282.22465 699.4645 282.88124 699.2007 283.51817 698.9368 284.1551 698.61337 284.7602 698.2303 285.33348 697.8473 285.9067 697.41207 286.4371 696.92459 286.92463 696.4371 287.41215 695.9067 287.8474 695.3334 288.23045 694.7602 288.61347 694.1551 288.9369 693.51809 289.2007 692.8811 289.46455 692.22457 289.66374 691.54837 289.79823 690.8722 289.93275 690.1894 290 689.5 290H460.5C459.81056 290 459.12773 289.93275 458.45155 289.79823 457.77534 289.66374 457.11875 289.46455 456.48179 289.2007 455.84483 288.9369 455.23973 288.61347 454.66645 288.23045 454.0932 287.8474 453.56285 287.41215 453.07536 286.92463 452.58784 286.4371 452.15254 285.9067 451.7695 285.33348 451.38648 284.7602 451.06303 284.1551 450.7992 283.51817 450.53538 282.88124 450.3362 282.22465 450.2017 281.54844 450.06724 280.87226 450 280.18946 450 279.5V230.5C450 229.81055 450.06727 229.12772 450.20176 228.45153 450.33625 227.77533 450.53538 227.11876 450.7992 226.4818 451.06303 225.84484 451.38648 225.23973 451.7695 224.66649 452.15254 224.09325 452.58784 223.56287 453.07536 223.07537 453.56285 222.58785 454.0932 222.15258 454.66648 221.76955 455.23973 221.3865 455.84483 221.06308 456.48179 220.79926 457.11875 220.53542 457.77534 220.33626 458.45155 220.20175 459.12773 220.06725 459.81056 220 460.5 220Z"/>
<text xml:space="preserve" transform="matrix(.7199774 0 0 .7199774 -268.1887 -100.07686)" font-size="20" font-family="Arial"><tspan y="251" x="465.3125 476.7871 483.4471 494.5671 499.0071 510.1271 514.5671 525.6871 536.80709 543.46707 554.58706 565.70706 570.14706 580.14706 585.70706 592.367 603.487 607.927 619.047 624.607 629.047 640.167 651.287 661.287 666.847 672.407">Training-only relations: Z</tspan></text>
<text xml:space="preserve" transform="matrix(.7199774 0 0 .7199774 -268.1887 -100.07686)" font-size="20" font-family="Arial"><tspan y="275" x="512.5781 519.2381 524.4381 534.4381 545.5581 552.2181 558.87808 564.07809 570.73806 576.29806 581.85806 594.078 598.518 608.518 619.638 630.758">(|corr|), Fisher</tspan></text>
<path transform="matrix(.7199774,0,0,.7199774,-268.1887,-100.07686)" d="M460.5 320H689.5C690.1894 320 690.8722 320.06727 691.54837 320.20176 692.22457 320.33625 692.8811 320.5354 693.51809 320.79924 694.1551 321.06306 694.7602 321.38648 695.33346 321.7695 695.9067 322.15254 696.4371 322.58784 696.92459 323.07536 697.41207 323.56288 697.8473 324.09324 698.23037 324.66648 698.61337 325.23973 698.9368 325.84483 699.2007 326.48179 699.4645 327.11875 699.66366 327.77534 699.79818 328.4515 699.9327 329.12773 699.99996 329.81056 700 330.5V379.5C699.99996 380.18943 699.9327 380.87223 699.79818 381.5484 699.66366 382.22459 699.4645 382.88114 699.2007 383.51808 698.9368 384.155 698.61337 384.7601 698.2303 385.33338 697.8473 385.90666 697.41207 386.43705 696.92459 386.92457 696.4371 387.41206 695.9067 387.84733 695.3334 388.23036 694.7602 388.61338 694.1551 388.93684 693.51809 389.20069 692.8811 389.4645 692.22457 389.6637 691.54837 389.79823 690.8722 389.9327 690.1894 389.99998 689.5 390H460.5C459.81056 389.99998 459.12773 389.9327 458.45155 389.79823 457.77534 389.6637 457.11875 389.4645 456.48179 389.20069 455.84483 388.93684 455.23973 388.61338 454.66645 388.23036 454.0932 387.84733 453.56285 387.41206 453.07536 386.92457 452.58784 386.43705 452.15254 385.90666 451.7695 385.33338 451.38648 384.7601 451.06303 384.155 450.7992 383.51808 450.53538 382.88114 450.3362 382.22459 450.2017 381.5484 450.06724 380.87223 450 380.18943 450 379.5V330.5C450 329.81056 450.06727 329.12773 450.20176 328.4515 450.33625 327.77534 450.53538 327.11875 450.7992 326.48179 451.06303 325.84483 451.38648 325.23973 451.7695 324.66645 452.15254 324.09324 452.58784 323.56288 453.07536 323.07536 453.56285 322.58784 454.0932 322.15254 454.66648 321.7695 455.23973 321.38648 455.84483 321.06306 456.48179 320.79924 457.11875 320.5354 457.77534 320.33625 458.45155 320.20176 459.12773 320.06727 459.81056 320 460.5 320Z" fill="#ffffff"/>
<path transform="matrix(.7199774,0,0,.7199774,-268.1887,-100.07686)" stroke-width="2" stroke-linecap="butt" stroke-miterlimit="4" stroke-linejoin="miter" fill="none" stroke="#000000" d="M460.5 320H689.5C690.1894 320 690.8722 320.06727 691.54837 320.20176 692.22457 320.33625 692.8811 320.5354 693.51809 320.79924 694.1551 321.06306 694.7602 321.38648 695.33346 321.7695 695.9067 322.15254 696.4371 322.58784 696.92459 323.07536 697.41207 323.56288 697.8473 324.09324 698.23037 324.66648 698.61337 325.23973 698.9368 325.84483 699.2007 326.48179 699.4645 327.11875 699.66366 327.77534 699.79818 328.4515 699.9327 329.12773 699.99996 329.81056 700 330.5V379.5C699.99996 380.18943 699.9327 380.87223 699.79818 381.5484 699.66366 382.22459 699.4645 382.88114 699.2007 383.51808 698.9368 384.155 698.61337 384.7601 698.2303 385.33338 697.8473 385.90666 697.41207 386.43705 696.92459 386.92457 696.4371 387.41206 695.9067 387.84733 695.3334 388.23036 694.7602 388.61338 694.1551 388.93684 693.51809 389.20069 692.8811 389.4645 692.22457 389.6637 691.54837 389.79823 690.8722 389.9327 690.1894 389.99998 689.5 390H460.5C459.81056 389.99998 459.12773 389.9327 458.45155 389.79823 457.77534 389.6637 457.11875 389.4645 456.48179 389.20069 455.84483 388.93684 455.23973 388.61338 454.66645 388.23036 454.0932 387.84733 453.56285 387.41206 453.07536 386.92457 452.58784 386.43705 452.15254 385.90666 451.7695 385.33338 451.38648 384.7601 451.06303 384.155 450.7992 383.51808 450.53538 382.88114 450.3362 382.22459 450.2017 381.5484 450.06724 380.87223 450 380.18943 450 379.5V330.5C450 329.81056 450.06727 329.12773 450.20176 328.4515 450.33625 327.77534 450.53538 327.11875 450.7992 326.48179 451.06303 325.84483 451.38648 325.23973 451.7695 324.66645 452.15254 324.09324 452.58784 323.56288 453.07536 323.07536 453.56285 322.58784 454.0932 322.15254 454.66648 321.7695 455.23973 321.38648 455.84483 321.06306 456.48179 320.79924 457.11875 320.5354 457.77534 320.33625 458.45155 320.20176 459.12773 320.06727 459.81056 320 460.5 320Z"/>
<text xml:space="preserve" transform="matrix(.7199774 0 0 .7199774 -268.1887 -100.07686)" font-size="20" font-family="Arial"><tspan y="351" x="457.70314 472.14314 483.26313 494.38313 504.38313 509.9431 516.6031 527.7231 537.7231 543.2831 548.8431 558.8431 569.9631 581.08309 592.20309 596.64309 607.76309 618.88308 624.44308 635.56307 641.12307 652.24307 658.903 670.023 681.143">Construct candidate graph</tspan></text>
<text xml:space="preserve" transform="matrix(.7199774 0 0 .7199774 -268.1887 -100.07686)" font-size="20" font-family="Arial"><tspan y="375" x="560 574.44">CG</tspan></text>
<path transform="matrix(.7199774,0,0,.7199774,-268.1887,-100.07686)" d="M575 925 700 967.5 575 1010 450 967.5 575 925Z" fill="#ffffff"/>
<path transform="matrix(.7199774,0,0,.7199774,-268.1887,-100.07686)" stroke-width="2" stroke-linecap="butt" stroke-miterlimit="10" stroke-linejoin="miter" fill="none" stroke="#000000" d="M575 925 700 967.5 575 1010 450 967.5 575 925Z"/>
<text xml:space="preserve" transform="matrix(.7199774 0 0 .7199774 -268.1887 -100.07686)" font-size="20" font-family="Arial"><tspan y="964" x="535.5 548.84 554.4 565.52 576.64 587.76 592.2 603.32">Stopping</tspan></text>
<text xml:space="preserve" transform="matrix(.7199774 0 0 .7199774 -268.1887 -100.07686)" font-size="20" font-family="Arial"><tspan y="988" x="533.8594 543.8594 550.51937 554.95938 560.51937 571.63937 578.2993 582.7393 593.8593 604.9793">criterion?</tspan></text>
<path transform="matrix(.7199774,0,0,.7199774,-267.8287,-99.71687)" stroke-width="1" stroke-linecap="butt" stroke-miterlimit="10" stroke-linejoin="miter" fill="none" stroke="#000000" d="M575 870V918.63"/>
<path transform="matrix(.7199774,0,0,.7199774,-267.8287,-99.71687)" d="M575 923.88 571.5 916.88 575 918.63 578.5 916.88 575 923.88Z"/>
<path transform="matrix(.7199774,0,0,.7199774,-267.8287,-99.71687)" stroke-width="1" stroke-linecap="butt" stroke-miterlimit="10" stroke-linejoin="miter" fill="none" stroke="#000000" d="M575 923.88 571.5 916.88 575 918.63 578.5 916.88 575 923.88Z"/>
<path transform="matrix(.7199774,0,0,.7199774,-267.8287,-99.71687)" stroke-width="1" stroke-linecap="butt" stroke-miterlimit="10" stroke-linejoin="miter" fill="none" stroke="#000000" d="M700 714.5V713H740V967.5H708.12"/>
<path transform="matrix(.7199774,0,0,.7199774,-267.8287,-99.71687)" d="M701.12 967.5 708.12 964V971L701.12 967.5Z"/>
<path transform="matrix(.7199774,0,0,.7199774,-267.8287,-99.71687)" stroke-width="1" stroke-linecap="butt" stroke-miterlimit="10" stroke-linejoin="miter" fill="none" stroke="#000000" d="M701.12 967.5 708.12 964V971L701.12 967.5Z"/>
<path transform="matrix(.7199774,0,0,.7199774,-268.1887,-100.07686)" d="M722 893H759V911H722Z" fill="#ffffff"/>
<text xml:space="preserve" transform="matrix(.7199774 0 0 .7199774 -268.1887 -100.07686)" font-size="15" font-family="Arial"><tspan y="907" x="722.15628 731.3212 739.66128 742.9913 750.4913">False</tspan></text>
<path transform="matrix(.7199774,0,0,.7199774,-268.1887,-100.07686)" d="M575 672 700 714.5 575 757 450 714.5 575 672Z" fill="#ffffff"/>
<path transform="matrix(.7199774,0,0,.7199774,-268.1887,-100.07686)" stroke-width="2" stroke-linecap="butt" stroke-miterlimit="10" stroke-linejoin="miter" fill="none" stroke="#000000" d="M575 672 700 714.5 575 757 450 714.5 575 672Z"/>
<text xml:space="preserve" transform="matrix(.7199774 0 0 .7199774 -268.1887 -100.07686)" font-size="20" font-family="Arial"><tspan y="711" x="542.1875 547.7475 558.8675 564.4275 575.5475 582.20748 592.20748 603.32748">Interval</tspan></text>
<text xml:space="preserve" transform="matrix(.7199774 0 0 .7199774 -268.1887 -100.07686)" font-size="20" font-family="Arial"><tspan y="735" x="533.8594 543.8594 550.51937 554.95938 560.51937 571.63937 578.2993 582.7393 593.8593 604.9793">criterion?</tspan></text>
<path transform="matrix(.7199774,0,0,.7199774,-268.1887,-100.07686)" d="M460.5 800H689.5C690.1894 800 690.8722 800.06729 691.54837 800.2017 692.22457 800.33627 692.8811 800.5354 693.51809 800.7992 694.1551 801.063 694.7602 801.3864 695.33346 801.76956 695.9067 802.1525 696.4371 802.58779 696.92459 803.0753 697.41207 803.5628 697.8473 804.0932 698.23037 804.66647 698.61337 805.2396 698.9368 805.8447 699.2007 806.4817 699.4645 807.11868 699.66366 807.77529 699.79818 808.4515 699.9327 809.1277 699.99996 809.8105 700 810.5V859.5C699.99996 860.1894 699.9327 860.87216 699.79818 861.5483 699.66366 862.2245 699.4645 862.88107 699.2007 863.518 698.9368 864.15499 698.61337 864.7601 698.2303 865.3333 697.8473 865.9066 697.41207 866.4371 696.92459 866.92459 696.4371 867.41207 695.9067 867.84738 695.3334 868.23037 694.7602 868.6134 694.1551 868.9368 693.51809 869.2006 692.8811 869.4644 692.22457 869.6636 691.54837 869.79818 690.8722 869.9327 690.1894 869.99996 689.5 870H460.5C459.81056 869.99996 459.12773 869.9327 458.45155 869.79818 457.77534 869.6636 457.11875 869.4644 456.48179 869.2006 455.84483 868.9368 455.23973 868.6134 454.66645 868.23037 454.0932 867.84738 453.56285 867.41207 453.07536 866.92459 452.58784 866.4371 452.15254 865.9066 451.7695 865.3333 451.38648 864.76016 451.06303 864.155 450.7992 863.51809 450.53538 862.88107 450.3362 862.2245 450.2017 861.5483 450.06724 860.87216 450 860.1894 450 859.5V810.5C450 809.8105 450.06727 809.1277 450.20176 808.4515 450.33625 807.77529 450.53538 807.11868 450.7992 806.4817 451.06303 805.8447 451.38648 805.2396 451.7695 804.6664 452.15254 804.0932 452.58784 803.5628 453.07536 803.0753 453.56285 802.58779 454.0932 802.1525 454.66648 801.76956 455.23973 801.3864 455.84483 801.063 456.48179 800.7992 457.11875 800.5354 457.77534 800.33627 458.45155 800.2017 459.12773 800.06729 459.81056 800 460.5 800Z" fill="#ffffff"/>
<path transform="matrix(.7199774,0,0,.7199774,-268.1887,-100.07686)" stroke-width="2" stroke-linecap="butt" stroke-miterlimit="4" stroke-linejoin="miter" fill="none" stroke="#000000" d="M460.5 800H689.5C690.1894 800 690.8722 800.06729 691.54837 800.2017 692.22457 800.33627 692.8811 800.5354 693.51809 800.7992 694.1551 801.063 694.7602 801.3864 695.33346 801.76956 695.9067 802.1525 696.4371 802.58779 696.92459 803.0753 697.41207 803.5628 697.8473 804.0932 698.23037 804.66647 698.61337 805.2396 698.9368 805.8447 699.2007 806.4817 699.4645 807.11868 699.66366 807.77529 699.79818 808.4515 699.9327 809.1277 699.99996 809.8105 700 810.5V859.5C699.99996 860.1894 699.9327 860.87216 699.79818 861.5483 699.66366 862.2245 699.4645 862.88107 699.2007 863.518 698.9368 864.15499 698.61337 864.7601 698.2303 865.3333 697.8473 865.9066 697.41207 866.4371 696.92459 866.92459 696.4371 867.41207 695.9067 867.84738 695.3334 868.23037 694.7602 868.6134 694.1551 868.9368 693.51809 869.2006 692.8811 869.4644 692.22457 869.6636 691.54837 869.79818 690.8722 869.9327 690.1894 869.99996 689.5 870H460.5C459.81056 869.99996 459.12773 869.9327 458.45155 869.79818 457.77534 869.6636 457.11875 869.4644 456.48179 869.2006 455.84483 868.9368 455.23973 868.6134 454.66645 868.23037 454.0932 867.84738 453.56285 867.41207 453.07536 866.92459 452.58784 866.4371 452.15254 865.9066 451.7695 865.3333 451.38648 864.76016 451.06303 864.155 450.7992 863.51809 450.53538 862.88107 450.3362 862.2245 450.2017 861.5483 450.06724 860.87216 450 860.1894 450 859.5V810.5C450 809.8105 450.06727 809.1277 450.20176 808.4515 450.33625 807.77529 450.53538 807.11868 450.7992 806.4817 451.06303 805.8447 451.38648 805.2396 451.7695 804.6664 452.15254 804.0932 452.58784 803.5628 453.07536 803.0753 453.56285 802.58779 454.0932 802.1525 454.66648 801.76956 455.23973 801.3864 455.84483 801.063 456.48179 800.7992 457.11875 800.5354 457.77534 800.33627 458.45155 800.2017 459.12773 800.06729 459.81056 800 460.5 800Z"/>
<text xml:space="preserve" transform="matrix(.7199774 0 0 .7199774 -268.1887 -100.07686)" font-size="20" font-family="Arial"><tspan y="831" x="457.17189 471.61189 482.73188 493.85188 504.97187 510.53187 521.65188 531.65188 542.77188 553.89187 570.5518 574.9918 584.9918 590.5518 607.2118 618.3318 628.3318 639.4518 650.5718 661.6918 666.1318 676.1318">Node dynamic mechanism</tspan></text>
<text xml:space="preserve" transform="matrix(.7199774 0 0 .7199774 -268.1887 -100.07686)" font-size="20" font-family="Arial"><tspan y="855" x="476.03126 482.69126 493.81126 504.93125 516.0513 527.17129 532.73129 543.85128 549.41128 560.53128 571.65127 582.77127 593.89126 599.45126 613.89126 625.0112 629.45126 640.5712 651.6912 657.2512 667.2512">(update node weights)</tspan></text>
<path transform="matrix(.7199774,0,0,.7199774,-268.1887,-100.07686)" d="M463.5 550H686.5C687.3864 550 688.2643 550.0865 689.13369 550.25949 690.003 550.4323 690.84719 550.68838 691.66616 551.0276 692.48507 551.3668 693.26309 551.78268 694.0001 552.27517 694.7371 552.7676 695.41909 553.3272 696.0459 553.954 696.67269 554.58078 697.2323 555.2627 697.7248 555.9997 698.2172 556.7367 698.63308 557.5147 698.9722 558.3337 699.31149 559.15267 699.56759 559.9968 699.74057 560.8662 699.91348 561.73568 699.99996 562.6136 700 563.5V626.5C699.99996 627.3864 699.91348 628.26437 699.7405 629.1337 699.56759 630.0031 699.31149 630.8473 698.9722 631.6662 698.63308 632.48519 698.2172 633.2632 697.7248 634.0002 697.2323 634.7372 696.67269 635.4191 696.0459 636.0459 695.41909 636.67269 694.7371 637.2323 694.0001 637.72476 693.26309 638.21719 692.48507 638.633 691.66616 638.9723 690.84719 639.3115 690.003 639.5676 689.13369 639.74057 688.2643 639.91348 687.3864 639.99996 686.5 640H463.5C462.61357 639.99996 461.73564 639.91348 460.86625 639.74057 459.99684 639.5676 459.15266 639.3115 458.3337 638.9723 457.51478 638.633 456.73683 638.21719 455.9998 637.72476 455.26277 637.2323 454.58085 636.67269 453.95405 636.0459 453.32725 635.4191 452.76759 634.7372 452.27513 634.0002 451.78266 633.2632 451.3668 632.48519 451.02757 631.6662 450.68836 630.8473 450.43229 630.0031 450.25938 629.1337 450.08647 628.26437 450 627.3864 450 626.5V563.5C450 562.6136 450.08647 561.73568 450.2594 560.8662 450.43229 559.9968 450.68836 559.15267 451.02757 558.3337 451.3668 557.5147 451.78263 556.7367 452.2751 555.99966 452.76759 555.26266 453.32725 554.58078 453.95405 553.954 454.58085 553.3272 455.26277 552.7676 455.9998 552.2751 456.73683 551.7826 457.51478 551.3667 458.3337 551.0275 459.15266 550.68838 459.99684 550.43228 460.86625 550.25936 461.73564 550.0864 462.61357 550 463.5 550Z" fill="#ffffff"/>
<path transform="matrix(.7199774,0,0,.7199774,-268.1887,-100.07686)" stroke-width="2" stroke-linecap="butt" stroke-miterlimit="4" stroke-linejoin="miter" fill="none" stroke="#000000" d="M463.5 550H686.5C687.3864 550 688.2643 550.0865 689.13369 550.25949 690.003 550.4323 690.84719 550.68838 691.66616 551.0276 692.48507 551.3668 693.26309 551.78268 694.0001 552.27517 694.7371 552.7676 695.41909 553.3272 696.0459 553.954 696.67269 554.58078 697.2323 555.2627 697.7248 555.9997 698.2172 556.7367 698.63308 557.5147 698.9722 558.3337 699.31149 559.15267 699.56759 559.9968 699.74057 560.8662 699.91348 561.73568 699.99996 562.6136 700 563.5V626.5C699.99996 627.3864 699.91348 628.26437 699.7405 629.1337 699.56759 630.0031 699.31149 630.8473 698.9722 631.6662 698.63308 632.48519 698.2172 633.2632 697.7248 634.0002 697.2323 634.7372 696.67269 635.4191 696.0459 636.0459 695.41909 636.67269 694.7371 637.2323 694.0001 637.72476 693.26309 638.21719 692.48507 638.633 691.66616 638.9723 690.84719 639.3115 690.003 639.5676 689.13369 639.74057 688.2643 639.91348 687.3864 639.99996 686.5 640H463.5C462.61357 639.99996 461.73564 639.91348 460.86625 639.74057 459.99684 639.5676 459.15266 639.3115 458.3337 638.9723 457.51478 638.633 456.73683 638.21719 455.9998 637.72476 455.26277 637.2323 454.58085 636.67269 453.95405 636.0459 453.32725 635.4191 452.76759 634.7372 452.27513 634.0002 451.78266 633.2632 451.3668 632.48519 451.02757 631.6662 450.68836 630.8473 450.43229 630.0031 450.25938 629.1337 450.08647 628.26437 450 627.3864 450 626.5V563.5C450 562.6136 450.08647 561.73568 450.2594 560.8662 450.43229 559.9968 450.68836 559.15267 451.02757 558.3337 451.3668 557.5147 451.78263 556.7367 452.2751 555.99966 452.76759 555.26266 453.32725 554.58078 453.95405 553.954 454.58085 553.3272 455.26277 552.7676 455.9998 552.2751 456.73683 551.7826 457.51478 551.3667 458.3337 551.0275 459.15266 550.68838 459.99684 550.43228 460.86625 550.25936 461.73564 550.0864 462.61357 550 463.5 550Z"/>
<text xml:space="preserve" transform="matrix(.7199774 0 0 .7199774 -268.1887 -100.07686)" font-size="20" font-family="Arial"><tspan y="579" x="494.40626 507.74626 513.3063 519.96627 531.08627 541.08627 546.64627 557.76626 564.4262 575.5462 581.1062 592.2262 602.2262 613.3462 624.4662 641.12619 645.56619">Structure dynamic</tspan></text>
<text xml:space="preserve" transform="matrix(.7199774 0 0 .7199774 -268.1887 -100.07686)" font-size="20" font-family="Arial"><tspan y="603" x="523.8594 540.51937 551.63937 561.63937 572.75936 583.87936 594.9993 599.43936 609.43936">mechanism</tspan></text>
<text xml:space="preserve" transform="matrix(.7199774 0 0 .7199774 -268.1887 -100.07686)" font-size="20" font-family="Arial"><tspan y="627" x="494.40626 501.06626 517.72628 533.28628 546.6263 558.8594 564.4194 575.53939 586.65939 597.77938 604.43936 615.5593 621.1193 632.2393 638.8993 648.8993">(MOEA operators)</tspan></text>
<text xml:space="preserve" transform="matrix(0 -.7199774 .7199774 0 -479.50209 722.4973)" font-size="20" font-family="Arial" font-weight="bold"><tspan y="726" x="258.0625 271.4025 282.5225 294.7425 300.3025 312.5225 319.1825 324.7425 336.9625 349.1825 360.3025 368.0825 379.20249 384.76249 395.88249 407.00248 418.12248 425.90248 437.02247 449.24247 454.80247 461.46247 478.12248 493.68247 507.02247 520.71878 526.27877 538.4987 550.7187 556.2787 570.7187 586.2787">Evolutionary search (MOEA on CG)</tspan></text>
<path transform="matrix(.7199774,0,0,.7199774,-267.8287,-99.71687)" stroke-width="1" stroke-linecap="butt" stroke-miterlimit="10" stroke-linejoin="miter" fill="none" stroke="#000000" d="M575 757V791.88"/>
<path transform="matrix(.7199774,0,0,.7199774,-267.8287,-99.71687)" d="M575 798.88 571.5 791.88H578.5L575 798.88Z"/>
<path transform="matrix(.7199774,0,0,.7199774,-267.8287,-99.71687)" stroke-width="1" stroke-linecap="butt" stroke-miterlimit="10" stroke-linejoin="miter" fill="none" stroke="#000000" d="M575 798.88 571.5 791.88H578.5L575 798.88Z"/>
<text xml:space="preserve" transform="matrix(.7199774 0 0 .7199774 -268.1887 -100.07686)" font-size="15" font-family="Arial"><tspan y="781" x="581.3594 589.96536 594.9603 603.30038">True</tspan></text>
<path transform="matrix(.7199774,0,0,.7199774,-267.8287,-99.71687)" stroke-width="1" stroke-linecap="butt" stroke-miterlimit="10" stroke-linejoin="miter" fill="none" stroke="#000000" d="M575 640V665.63"/>
<path transform="matrix(.7199774,0,0,.7199774,-267.8287,-99.71687)" d="M575 670.88 571.5 663.88 575 665.63 578.5 663.88 575 670.88Z"/>
<path transform="matrix(.7199774,0,0,.7199774,-267.8287,-99.71687)" stroke-width="1" stroke-linecap="butt" stroke-miterlimit="10" stroke-linejoin="miter" fill="none" stroke="#000000" d="M575 670.88 571.5 663.88 575 665.63 578.5 663.88 575 670.88Z"/>
</g>
</svg>
